<?xml version="1.0" standalone="no"?>
<!DOCTYPE svg PUBLIC "-//W3C//DTD SVG 20010904//EN"
 "http://www.w3.org/TR/2001/REC-SVG-20010904/DTD/svg10.dtd">
<svg version="1.0" xmlns="http://www.w3.org/2000/svg"
 width="512.000000pt" height="512.000000pt" viewBox="0 0 512.000000 512.000000"
 preserveAspectRatio="xMidYMid meet">
<metadata>
Created by potrace 1.14, written by Peter Selinger 2001-2017
</metadata>
<g transform="translate(0.000000,512.000000) scale(0.100000,-0.100000)"
fill="#000000" stroke="none">
<path d="M762 4254 c-145 -30 -261 -134 -314 -283 -20 -55 -20 -81 -20 -1411
0 -1331 0 -1356 20 -1411 52 -146 164 -249 308 -282 49 -11 362 -14 1824 -12
1928 2 1800 -2 1902 58 87 51 174 163 195 251 15 67 18 270 17 1451 l-1 1300
-23 60 c-53 138 -145 229 -278 273 -42 14 -237 16 -1808 17 -1383 1 -1773 -1
-1822 -11z m611 -645 c40 -20 927 -912 949 -954 31 -59 29 -139 -5 -196 -14
-24 -226 -244 -470 -488 -407 -406 -449 -445 -497 -461 -105 -36 -208 8 -260
111 -23 43 -21 139 2 184 9 17 179 194 378 393 l362 362 -363 365 c-200 200
-372 379 -381 397 -55 104 -5 237 107 289 44 20 136 19 178 -2z m2545 -1705
c47 -19 88 -58 114 -108 16 -31 19 -53 16 -102 -5 -78 -41 -136 -108 -174
l-45 -25 -695 0 -695 0 -42 23 c-159 84 -149 314 17 386 53 23 1383 24 1438 0z"/>
</g>
</svg>
